<mxfile host="app.diagrams.net" modified="2024-06-05T09:35:28.715Z" agent="Mozilla/5.0 (Windows NT 10.0; Win64; x64) AppleWebKit/537.36 (KHTML, like Gecko) Chrome/125.0.0.0 Safari/537.36" version="24.4.13" etag="gYfIdZzJbsemEk1VTwW6" type="github">
  <diagram name="Page-1" id="x-4lfFE1bHsVELgbJs9u">
    <mxGraphModel>
      <root>
        <mxCell id="0" />
        <mxCell id="1" parent="0" />
      </root>
    </mxGraphModel>
  </diagram>
</mxfile>
